# xmcd
#
# Track frame offsets: 
#        150
#        19855
#        42825
#        68637
#        90110
#        113722
#        137410
#        158605
#        183257
#        208810
#
# Disc length: 3124 seconds
#
# Revision: 2
# Processed by: cddbd v1.5.2PL0 Copyright (c) Steve Scherf et al.
# Submitted via: ExactAudioCopy v1.0b3
#
DISCID=730c320a
DTITLE=Che Linh, Thanh Tuyen - Ao Cuoi Mau Hoa Ca
DYEAR=1989
DGENRE=
TTITLE0=Gio lanh dem he
TTITLE1=Che Linh - Ao cuoi mau hoa ca
TTITLE2=Thanh Tuyen - Trang rung xuong cau
TTITLE3=Che Linh - Thu gui nguoi mien xa
TTITLE4=Thanh Tuyen - Bai ca tra nang
TTITLE5=Nhip cau tri am
TTITLE6=Che Linh - Nu cuoi trong mat em
TTITLE7=Thanh Tuyen - Bong hong cai ao
TTITLE8=Che Linh - Giong ca di vang 
TTITLE9=Thanh Tuyen - Tinh dem lien hoan
EXTD=
EXTT0=
EXTT1=
EXTT2=
EXTT3=
EXTT4=
EXTT5=
EXTT6=
EXTT7=
EXTT8=
EXTT9=
PLAYORDER=
